<svg xmlns="http://www.w3.org/2000/svg" xmlns:xlink="http://www.w3.org/1999/xlink" width="768" zoomAndPan="magnify" viewBox="0 0 576 576" height="768" preserveAspectRatio="xMidYMid meet" version="1.0"><rect x="-57.6" width="691.2" fill="#ffffff" y="-57.6" height="691.2" fill-opacity="1"/><rect x="-57.6" width="691.2" fill="#ffffff" y="-57.6" height="691.2" fill-opacity="1"/><path fill="#ec644e" d="M 15.742188 15.746094 L 560.253906 15.746094 L 560.253906 560.257812 L 15.742188 560.257812 Z M 15.742188 15.746094 " fill-opacity="1" fill-rule="nonzero"/><path fill="#262626" d="M 72.136719 321.320312 C 69.253906 321.320312 66.621094 320.632812 64.238281 319.257812 C 61.863281 317.875 59.984375 316.027344 58.601562 313.714844 C 57.226562 311.394531 56.539062 308.824219 56.539062 306.003906 L 56.539062 268.902344 C 56.539062 266.082031 57.226562 263.53125 58.601562 261.25 C 59.984375 258.960938 61.863281 257.128906 64.238281 255.753906 C 66.621094 254.371094 69.253906 253.679688 72.136719 253.679688 L 90.640625 253.679688 C 94.398438 253.679688 97.890625 254.371094 101.117188 255.753906 C 104.34375 257.128906 107.160156 259.039062 109.566406 261.484375 C 111.980469 263.921875 113.875 266.769531 115.25 270.027344 C 116.632812 273.285156 117.324219 276.761719 117.324219 280.457031 C 117.324219 284.214844 116.601562 287.722656 115.15625 290.980469 C 113.71875 294.238281 111.746094 297.105469 109.238281 299.582031 C 106.738281 302.050781 103.828125 303.960938 100.507812 305.3125 C 97.1875 306.65625 93.648438 307.265625 89.890625 307.140625 L 88.203125 297.929688 C 88.078125 297.554688 87.890625 297.398438 87.640625 297.460938 C 87.390625 297.523438 87.265625 297.742188 87.265625 298.117188 L 87.265625 306.003906 C 87.265625 308.761719 86.574219 311.300781 85.191406 313.621094 C 83.816406 315.933594 81.984375 317.796875 79.695312 319.210938 C 77.414062 320.617188 74.894531 321.320312 72.136719 321.320312 Z M 88.671875 276.976562 C 88.421875 276.976562 88.1875 276.976562 87.96875 276.976562 C 87.75 276.976562 87.515625 277.039062 87.265625 277.164062 L 87.265625 283.644531 C 87.765625 283.957031 88.234375 284.113281 88.671875 284.113281 C 89.671875 284.113281 90.53125 283.753906 91.25 283.035156 C 91.96875 282.316406 92.328125 281.457031 92.328125 280.457031 C 92.328125 279.457031 91.96875 278.628906 91.25 277.972656 C 90.53125 277.308594 89.671875 276.976562 88.671875 276.976562 Z M 88.671875 276.976562 " fill-opacity="1" fill-rule="nonzero"/><path fill="#262626" d="M 149.078125 299.898438 C 148.824219 299.585938 148.542969 299.539062 148.234375 299.757812 C 147.917969 299.976562 147.886719 300.273438 148.140625 300.648438 L 153.871094 309.390625 C 153.054688 312.523438 151.410156 315.140625 148.9375 317.242188 C 146.464844 319.335938 143.289062 320.382812 139.410156 320.382812 C 136.902344 320.382812 134.515625 319.726562 132.261719 318.414062 C 130.011719 317.09375 128.160156 315.308594 126.71875 313.058594 C 125.277344 310.800781 124.5625 308.324219 124.5625 305.628906 L 124.5625 268.621094 C 124.5625 265.550781 125.292969 262.90625 126.765625 260.6875 C 128.242188 258.460938 130.105469 256.738281 132.355469 255.519531 C 134.609375 254.292969 136.996094 253.679688 139.503906 253.679688 C 141.625 253.679688 143.675781 254.117188 145.644531 254.992188 C 147.617188 255.867188 149.328125 257.152344 150.777344 258.847656 L 186.753906 295.292969 C 189.636719 298.300781 191.078125 301.777344 191.078125 305.722656 C 191.078125 309.605469 189.636719 313.050781 186.753906 316.058594 C 185.3125 317.503906 183.671875 318.585938 181.820312 319.304688 C 179.972656 320.023438 178.082031 320.382812 176.136719 320.382812 C 174.261719 320.382812 172.398438 320.023438 170.546875 319.304688 C 168.699219 318.585938 167.054688 317.503906 165.613281 316.058594 Z M 149.078125 299.898438 " fill-opacity="1" fill-rule="nonzero"/><path fill="#262626" d="M 230.480469 253.679688 C 233.296875 253.679688 235.847656 254.371094 238.132812 255.753906 C 240.417969 257.128906 242.234375 258.960938 243.582031 261.25 C 244.929688 263.53125 245.609375 266.050781 245.609375 268.808594 C 245.609375 271.496094 244.945312 273.953125 243.628906 276.179688 C 242.316406 278.40625 240.546875 280.207031 238.320312 281.582031 C 236.097656 282.957031 233.578125 283.644531 230.761719 283.644531 L 230.855469 306.191406 C 230.855469 308.949219 230.164062 311.488281 228.78125 313.808594 C 227.402344 316.121094 225.570312 317.96875 223.285156 319.351562 C 221 320.726562 218.480469 321.414062 215.726562 321.414062 C 213.035156 321.414062 210.5625 320.726562 208.308594 319.351562 C 206.046875 317.96875 204.246094 316.121094 202.90625 313.808594 C 201.558594 311.488281 200.890625 308.949219 200.890625 306.191406 L 200.890625 283.644531 C 198.128906 283.644531 195.621094 282.957031 193.367188 281.582031 C 191.117188 280.207031 189.328125 278.40625 188.011719 276.179688 C 186.699219 273.953125 186.042969 271.496094 186.042969 268.808594 C 186.042969 266.050781 186.699219 263.53125 188.011719 261.25 C 189.328125 258.960938 191.117188 257.128906 193.367188 255.753906 C 195.621094 254.371094 198.128906 253.679688 200.890625 253.679688 Z M 230.480469 253.679688 " fill-opacity="1" fill-rule="nonzero"/><path fill="#262626" d="M 296.808594 253.679688 C 299.628906 253.679688 302.179688 254.371094 304.460938 255.753906 C 306.75 257.128906 308.566406 258.960938 309.910156 261.25 C 311.261719 263.53125 311.9375 266.050781 311.9375 268.808594 C 311.9375 271.496094 311.277344 273.953125 309.957031 276.179688 C 308.644531 278.40625 306.875 280.207031 304.648438 281.582031 C 302.429688 282.957031 299.910156 283.644531 297.089844 283.644531 L 297.183594 306.191406 C 297.183594 308.949219 296.492188 311.488281 295.109375 313.808594 C 293.734375 316.121094 291.902344 317.96875 289.613281 319.351562 C 287.332031 320.726562 284.8125 321.414062 282.054688 321.414062 C 279.367188 321.414062 276.894531 320.726562 274.636719 319.351562 C 272.378906 317.96875 270.578125 316.121094 269.234375 313.808594 C 267.890625 311.488281 267.21875 308.949219 267.21875 306.191406 L 267.21875 283.644531 C 264.460938 283.644531 261.953125 282.957031 259.695312 281.582031 C 257.445312 280.207031 255.660156 278.40625 254.339844 276.179688 C 253.027344 273.953125 252.371094 271.496094 252.371094 268.808594 C 252.371094 266.050781 253.027344 263.53125 254.339844 261.25 C 255.660156 258.960938 257.445312 257.128906 259.695312 255.753906 C 261.953125 254.371094 264.460938 253.679688 267.21875 253.679688 Z M 296.808594 253.679688 " fill-opacity="1" fill-rule="nonzero"/><path fill="#262626" d="M 318.980469 268.808594 C 318.980469 265.988281 319.621094 263.4375 320.902344 261.15625 C 322.191406 258.867188 323.976562 257.050781 326.257812 255.707031 C 328.546875 254.355469 331.164062 253.679688 334.109375 253.679688 L 358.625 253.679688 C 361.570312 253.679688 364.136719 254.402344 366.324219 255.847656 C 368.519531 257.285156 370.226562 259.148438 371.445312 261.4375 C 372.671875 263.71875 373.285156 266.144531 373.285156 268.714844 C 373.285156 271.339844 372.65625 273.75 371.398438 275.945312 C 370.148438 278.140625 368.378906 279.894531 366.089844 281.207031 C 363.808594 282.519531 361.070312 283.238281 357.875 283.363281 C 357.5625 283.363281 357.40625 283.535156 357.40625 283.878906 C 357.40625 284.222656 357.5625 284.460938 357.875 284.59375 C 360.445312 284.90625 362.949219 284.734375 365.386719 284.078125 C 367.832031 283.414062 369.996094 282.113281 371.878906 280.175781 C 372.816406 282.238281 373.285156 284.429688 373.285156 286.75 C 373.285156 291.132812 371.953125 294.609375 369.289062 297.179688 C 366.625 299.742188 363.132812 301.277344 358.8125 301.785156 C 358.5 301.785156 358.34375 301.972656 358.34375 302.347656 C 358.34375 302.722656 358.5 302.910156 358.8125 302.910156 C 361.257812 303.160156 363.636719 302.972656 365.949219 302.347656 C 368.269531 301.722656 370.308594 300.375 372.066406 298.304688 C 372.566406 299.117188 372.925781 300.027344 373.144531 301.035156 C 373.363281 302.035156 373.472656 303.535156 373.472656 305.535156 C 373.472656 306.980469 373.191406 308.566406 372.628906 310.292969 C 372.066406 312.011719 371.171875 313.636719 369.945312 315.167969 C 368.726562 316.699219 367.191406 317.953125 365.339844 318.929688 C 363.496094 319.898438 361.257812 320.382812 358.625 320.382812 L 333.921875 320.382812 C 331.164062 320.382812 328.640625 319.710938 326.351562 318.367188 C 324.070312 317.015625 322.269531 315.214844 320.949219 312.964844 C 319.636719 310.707031 318.980469 308.230469 318.980469 305.535156 Z M 318.980469 268.808594 " fill-opacity="1" fill-rule="nonzero"/><path fill="#262626" d="M 447.976562 306.578125 C 447.976562 309.765625 447.285156 312.457031 445.902344 314.652344 C 444.523438 316.847656 442.707031 318.507812 440.453125 319.632812 C 438.203125 320.757812 435.757812 321.320312 433.128906 321.320312 C 431.1875 321.320312 429.296875 320.960938 427.445312 320.242188 C 425.597656 319.523438 423.953125 318.441406 422.511719 316.996094 L 406.363281 300.742188 C 406.234375 300.429688 406.027344 300.433594 405.742188 300.753906 C 405.460938 301.066406 405.378906 301.378906 405.507812 301.691406 L 410.863281 309.953125 C 410.171875 313.210938 408.449219 315.921875 405.695312 318.085938 C 402.941406 320.242188 399.8125 321.320312 396.308594 321.320312 C 393.546875 321.320312 391.023438 320.644531 388.738281 319.304688 C 386.453125 317.953125 384.636719 316.152344 383.289062 313.902344 C 381.941406 311.644531 381.273438 309.105469 381.273438 306.285156 L 381.273438 268.714844 C 381.273438 265.957031 381.941406 263.453125 383.289062 261.203125 C 384.636719 258.945312 386.453125 257.128906 388.738281 255.753906 C 391.023438 254.371094 393.546875 253.679688 396.308594 253.679688 C 398.558594 253.679688 400.679688 254.195312 402.683594 255.226562 C 404.6875 256.257812 406.386719 257.496094 407.769531 258.941406 L 423.085938 273.976562 C 423.207031 274.226562 423.414062 274.257812 423.695312 274.070312 C 423.976562 273.882812 424.050781 273.664062 423.929688 273.414062 L 418.386719 265.328125 C 418.882812 263.195312 419.820312 261.253906 421.199219 259.503906 C 422.582031 257.753906 424.285156 256.347656 426.320312 255.285156 C 428.359375 254.214844 430.53125 253.679688 432.847656 253.679688 C 436.164062 253.679688 438.933594 254.371094 441.15625 255.753906 C 443.382812 257.128906 445.070312 258.945312 446.230469 261.203125 C 447.390625 263.453125 447.976562 265.957031 447.976562 268.714844 Z M 447.976562 306.578125 " fill-opacity="1" fill-rule="nonzero"/><path fill="#262626" d="M 516.09375 268.433594 C 516.09375 270.871094 515.527344 273.078125 514.394531 275.054688 C 513.269531 277.023438 511.613281 278.574219 509.425781 279.707031 C 507.855469 278.824219 506.175781 278.132812 504.386719 277.632812 C 502.605469 277.132812 500.777344 276.820312 498.902344 276.695312 C 498.527344 276.695312 498.292969 276.867188 498.199219 277.210938 C 498.105469 277.554688 498.246094 277.789062 498.621094 277.914062 C 502.816406 278.859375 506.242188 280.554688 508.898438 283 C 511.5625 285.4375 513.457031 288.253906 514.582031 291.449219 C 515.714844 294.644531 516.109375 297.933594 515.765625 301.316406 C 515.421875 304.691406 514.292969 307.820312 512.378906 310.703125 C 510.472656 313.585938 507.796875 315.921875 504.351562 317.710938 C 500.90625 319.492188 496.707031 320.382812 491.753906 320.382812 L 471.1875 320.382812 C 468.492188 320.382812 466.015625 319.601562 463.757812 318.039062 C 461.507812 316.46875 459.691406 314.527344 458.308594 312.214844 C 456.933594 309.894531 456.246094 307.636719 456.246094 305.441406 C 456.246094 302.878906 456.714844 300.644531 457.652344 298.738281 C 458.589844 296.824219 460.09375 295.113281 462.164062 293.605469 C 463.984375 294.792969 466.050781 295.703125 468.363281 296.335938 C 470.683594 296.960938 472.9375 297.273438 475.125 297.273438 C 475.5 297.273438 475.71875 297.101562 475.78125 296.757812 C 475.851562 296.414062 475.695312 296.179688 475.3125 296.054688 C 474 295.929688 472.683594 295.648438 471.363281 295.210938 C 470.050781 294.765625 468.769531 294.230469 467.519531 293.605469 C 464.449219 291.980469 462.003906 289.882812 460.183594 287.3125 C 458.371094 284.742188 457.199219 281.957031 456.667969 278.957031 C 456.136719 275.949219 456.230469 272.957031 456.949219 269.980469 C 457.667969 267.003906 459.011719 264.296875 460.980469 261.859375 C 462.957031 259.414062 465.574219 257.441406 468.832031 255.941406 C 472.089844 254.433594 475.972656 253.679688 480.480469 253.679688 L 500.871094 253.679688 C 503.691406 253.679688 506.242188 254.339844 508.523438 255.660156 C 510.8125 256.972656 512.644531 258.742188 514.019531 260.96875 C 515.402344 263.1875 516.09375 265.675781 516.09375 268.433594 Z M 516.09375 268.433594 " fill-opacity="1" fill-rule="nonzero"/></svg>