<svg xmlns="http://www.w3.org/2000/svg" xmlns:xlink="http://www.w3.org/1999/xlink" width="1118" zoomAndPan="magnify" viewBox="0 0 838.5 201.000001" height="268" preserveAspectRatio="xMidYMid meet" version="1.0"><defs><g/><clipPath id="ea078b25c7"><path d="M 28 8 L 830 8 L 830 200.003906 L 28 200.003906 Z M 28 8 " clip-rule="nonzero"/></clipPath><clipPath id="528fb7bd83"><path d="M 0.574219 0.359375 L 246 0.359375 L 246 192.003906 L 0.574219 192.003906 Z M 0.574219 0.359375 " clip-rule="nonzero"/></clipPath><clipPath id="1c51a467f9"><rect x="0" width="246" y="0" height="193"/></clipPath><clipPath id="238aed3a5a"><path d="M 219 0.359375 L 801.070312 0.359375 L 801.070312 192.003906 L 219 192.003906 Z M 219 0.359375 " clip-rule="nonzero"/></clipPath><clipPath id="a33bd9539d"><rect x="0" width="583" y="0" height="193"/></clipPath><clipPath id="2640493e0d"><rect x="0" width="802" y="0" height="193"/></clipPath></defs><g clip-path="url(#ea078b25c7)"><g transform="matrix(1, 0, 0, 1, 28, 8)"><g clip-path="url(#2640493e0d)"><g clip-path="url(#528fb7bd83)"><g transform="matrix(1, 0, 0, 1, 0, -0.000000000000005329)"><g clip-path="url(#1c51a467f9)"><g fill="#ffffff" fill-opacity="1"><g transform="translate(1.212636, 153.722766)"><g><path d="M 26.609375 1.609375 C 21.691406 1.609375 17.203125 0.429688 13.140625 -1.921875 C 9.085938 -4.273438 5.882812 -7.425781 3.53125 -11.375 C 1.175781 -15.332031 0 -19.71875 0 -24.53125 L 0 -87.875 C 0 -92.675781 1.175781 -97.023438 3.53125 -100.921875 C 5.882812 -104.828125 9.085938 -107.957031 13.140625 -110.3125 C 17.203125 -112.664062 21.691406 -113.84375 26.609375 -113.84375 L 58.203125 -113.84375 C 64.617188 -113.84375 70.578125 -112.664062 76.078125 -110.3125 C 81.585938 -107.957031 86.398438 -104.695312 90.515625 -100.53125 C 94.628906 -96.363281 97.863281 -91.5 100.21875 -85.9375 C 102.570312 -80.382812 103.75 -74.453125 103.75 -68.140625 C 103.75 -61.734375 102.515625 -55.75 100.046875 -50.1875 C 97.585938 -44.625 94.21875 -39.734375 89.9375 -35.515625 C 85.664062 -31.296875 80.695312 -28.035156 75.03125 -25.734375 C 69.375 -23.429688 63.335938 -22.390625 56.921875 -22.609375 L 54.03125 -38.328125 C 53.820312 -38.960938 53.503906 -39.226562 53.078125 -39.125 C 52.648438 -39.019531 52.4375 -38.644531 52.4375 -38 L 52.4375 -24.53125 C 52.4375 -19.832031 51.257812 -15.503906 48.90625 -11.546875 C 46.550781 -7.585938 43.421875 -4.40625 39.515625 -2 C 35.617188 0.40625 31.316406 1.609375 26.609375 1.609375 Z M 54.84375 -74.078125 C 54.414062 -74.078125 54.015625 -74.078125 53.640625 -74.078125 C 53.265625 -74.078125 52.863281 -73.972656 52.4375 -73.765625 L 52.4375 -62.6875 C 53.289062 -62.15625 54.09375 -61.890625 54.84375 -61.890625 C 56.550781 -61.890625 58.019531 -62.503906 59.25 -63.734375 C 60.476562 -64.960938 61.09375 -66.429688 61.09375 -68.140625 C 61.09375 -69.859375 60.476562 -71.273438 59.25 -72.390625 C 58.019531 -73.515625 56.550781 -74.078125 54.84375 -74.078125 Z M 54.84375 -74.078125 "/></g></g></g><g fill="#ffffff" fill-opacity="1"><g transform="translate(117.453579, 153.722766)"><g><path d="M 41.6875 -34.953125 C 41.257812 -35.484375 40.773438 -35.5625 40.234375 -35.1875 C 39.703125 -34.820312 39.648438 -34.316406 40.078125 -33.671875 L 49.859375 -18.765625 C 48.472656 -13.421875 45.664062 -8.957031 41.4375 -5.375 C 37.21875 -1.789062 31.796875 0 25.171875 0 C 20.898438 0 16.835938 -1.117188 12.984375 -3.359375 C 9.140625 -5.609375 5.988281 -8.65625 3.53125 -12.5 C 1.070312 -16.351562 -0.15625 -20.578125 -0.15625 -25.171875 L -0.15625 -88.34375 C -0.15625 -93.582031 1.097656 -98.097656 3.609375 -101.890625 C 6.117188 -105.691406 9.296875 -108.632812 13.140625 -110.71875 C 16.992188 -112.800781 21.054688 -113.84375 25.328125 -113.84375 C 28.960938 -113.84375 32.460938 -113.09375 35.828125 -111.59375 C 39.203125 -110.101562 42.117188 -107.914062 44.578125 -105.03125 L 105.984375 -42.8125 C 110.898438 -37.675781 113.359375 -31.742188 113.359375 -25.015625 C 113.359375 -18.390625 110.898438 -12.507812 105.984375 -7.375 C 103.523438 -4.914062 100.71875 -3.070312 97.5625 -1.84375 C 94.414062 -0.613281 91.1875 0 87.875 0 C 84.664062 0 81.484375 -0.613281 78.328125 -1.84375 C 75.171875 -3.070312 72.363281 -4.914062 69.90625 -7.375 Z M 41.6875 -34.953125 "/></g></g></g></g></g></g><g clip-path="url(#238aed3a5a)"><g transform="matrix(1, 0, 0, 1, 219, -0.000000000000005329)"><g clip-path="url(#a33bd9539d)"><g fill="#ffffff" fill-opacity="1"><g transform="translate(3.692471, 153.722766)"><g><path d="M 75.359375 -113.84375 C 80.171875 -113.84375 84.523438 -112.664062 88.421875 -110.3125 C 92.328125 -107.957031 95.425781 -104.828125 97.71875 -100.921875 C 100.019531 -97.023438 101.171875 -92.726562 101.171875 -88.03125 C 101.171875 -83.4375 100.046875 -79.238281 97.796875 -75.4375 C 95.554688 -71.644531 92.539062 -68.570312 88.75 -66.21875 C 84.957031 -63.863281 80.65625 -62.6875 75.84375 -62.6875 L 76 -24.21875 C 76 -19.507812 74.820312 -15.175781 72.46875 -11.21875 C 70.125 -7.269531 67 -4.117188 63.09375 -1.765625 C 59.195312 0.585938 54.894531 1.765625 50.1875 1.765625 C 45.59375 1.765625 41.367188 0.585938 37.515625 -1.765625 C 33.671875 -4.117188 30.597656 -7.269531 28.296875 -11.21875 C 26.003906 -15.175781 24.859375 -19.507812 24.859375 -24.21875 L 24.859375 -62.6875 C 20.148438 -62.6875 15.867188 -63.863281 12.015625 -66.21875 C 8.171875 -68.570312 5.125 -71.644531 2.875 -75.4375 C 0.632812 -79.238281 -0.484375 -83.4375 -0.484375 -88.03125 C -0.484375 -92.726562 0.632812 -97.023438 2.875 -100.921875 C 5.125 -104.828125 8.171875 -107.957031 12.015625 -110.3125 C 15.867188 -112.664062 20.148438 -113.84375 24.859375 -113.84375 Z M 75.359375 -113.84375 "/></g></g></g><g fill="#ffffff" fill-opacity="1"><g transform="translate(116.88712, 153.722766)"><g><path d="M 75.359375 -113.84375 C 80.171875 -113.84375 84.523438 -112.664062 88.421875 -110.3125 C 92.328125 -107.957031 95.425781 -104.828125 97.71875 -100.921875 C 100.019531 -97.023438 101.171875 -92.726562 101.171875 -88.03125 C 101.171875 -83.4375 100.046875 -79.238281 97.796875 -75.4375 C 95.554688 -71.644531 92.539062 -68.570312 88.75 -66.21875 C 84.957031 -63.863281 80.65625 -62.6875 75.84375 -62.6875 L 76 -24.21875 C 76 -19.507812 74.820312 -15.175781 72.46875 -11.21875 C 70.125 -7.269531 67 -4.117188 63.09375 -1.765625 C 59.195312 0.585938 54.894531 1.765625 50.1875 1.765625 C 45.59375 1.765625 41.367188 0.585938 37.515625 -1.765625 C 33.671875 -4.117188 30.597656 -7.269531 28.296875 -11.21875 C 26.003906 -15.175781 24.859375 -19.507812 24.859375 -24.21875 L 24.859375 -62.6875 C 20.148438 -62.6875 15.867188 -63.863281 12.015625 -66.21875 C 8.171875 -68.570312 5.125 -71.644531 2.875 -75.4375 C 0.632812 -79.238281 -0.484375 -83.4375 -0.484375 -88.03125 C -0.484375 -92.726562 0.632812 -97.023438 2.875 -100.921875 C 5.125 -104.828125 8.171875 -107.957031 12.015625 -110.3125 C 15.867188 -112.664062 20.148438 -113.84375 24.859375 -113.84375 Z M 75.359375 -113.84375 "/></g></g></g><g fill="#ffffff" fill-opacity="1"><g transform="translate(230.081769, 153.722766)"><g><path d="M 0 -88.03125 C 0 -92.84375 1.09375 -97.195312 3.28125 -101.09375 C 5.476562 -105 8.523438 -108.097656 12.421875 -110.390625 C 16.328125 -112.691406 20.789062 -113.84375 25.8125 -113.84375 L 67.671875 -113.84375 C 72.691406 -113.84375 77.070312 -112.613281 80.8125 -110.15625 C 84.550781 -107.695312 87.460938 -104.515625 89.546875 -100.609375 C 91.628906 -96.710938 92.671875 -92.570312 92.671875 -88.1875 C 92.671875 -83.695312 91.601562 -79.582031 89.46875 -75.84375 C 87.332031 -72.101562 84.3125 -69.109375 80.40625 -66.859375 C 76.507812 -64.617188 71.832031 -63.390625 66.375 -63.171875 C 65.84375 -63.171875 65.578125 -62.875 65.578125 -62.28125 C 65.578125 -61.695312 65.84375 -61.300781 66.375 -61.09375 C 70.757812 -60.5625 75.035156 -60.851562 79.203125 -61.96875 C 83.378906 -63.09375 87.070312 -65.3125 90.28125 -68.625 C 91.875 -65.09375 92.671875 -61.351562 92.671875 -57.40625 C 92.671875 -49.914062 90.398438 -43.976562 85.859375 -39.59375 C 81.316406 -35.21875 75.359375 -32.601562 67.984375 -31.75 C 67.453125 -31.75 67.1875 -31.425781 67.1875 -30.78125 C 67.1875 -30.144531 67.453125 -29.828125 67.984375 -29.828125 C 72.148438 -29.398438 76.210938 -29.71875 80.171875 -30.78125 C 84.128906 -31.851562 87.601562 -34.15625 90.59375 -37.6875 C 91.445312 -36.289062 92.0625 -34.738281 92.4375 -33.03125 C 92.8125 -31.320312 93 -28.753906 93 -25.328125 C 93 -22.867188 92.515625 -20.171875 91.546875 -17.234375 C 90.585938 -14.296875 89.066406 -11.515625 86.984375 -8.890625 C 84.898438 -6.273438 82.28125 -4.140625 79.125 -2.484375 C 75.976562 -0.828125 72.160156 0 67.671875 0 L 25.5 0 C 20.789062 0 16.484375 -1.144531 12.578125 -3.4375 C 8.679688 -5.738281 5.609375 -8.8125 3.359375 -12.65625 C 1.117188 -16.507812 0 -20.734375 0 -25.328125 Z M 0 -88.03125 "/></g></g></g><g fill="#ffffff" fill-opacity="1"><g transform="translate(336.382143, 153.722766)"><g><path d="M 113.84375 -23.578125 C 113.84375 -18.117188 112.664062 -13.519531 110.3125 -9.78125 C 107.957031 -6.039062 104.859375 -3.207031 101.015625 -1.28125 C 97.171875 0.644531 93.003906 1.609375 88.515625 1.609375 C 85.191406 1.609375 81.953125 0.992188 78.796875 -0.234375 C 75.648438 -1.460938 72.847656 -3.304688 70.390625 -5.765625 L 42.8125 -33.515625 C 42.59375 -34.046875 42.242188 -34.039062 41.765625 -33.5 C 41.285156 -32.96875 41.15625 -32.4375 41.375 -31.90625 L 50.515625 -17.796875 C 49.335938 -12.234375 46.394531 -7.609375 41.6875 -3.921875 C 36.988281 -0.234375 31.644531 1.609375 25.65625 1.609375 C 20.945312 1.609375 16.640625 0.457031 12.734375 -1.84375 C 8.835938 -4.144531 5.738281 -7.21875 3.4375 -11.0625 C 1.144531 -14.914062 0 -19.242188 0 -24.046875 L 0 -88.1875 C 0 -92.894531 1.144531 -97.171875 3.4375 -101.015625 C 5.738281 -104.859375 8.835938 -107.957031 12.734375 -110.3125 C 16.640625 -112.664062 20.945312 -113.84375 25.65625 -113.84375 C 29.5 -113.84375 33.128906 -112.957031 36.546875 -111.1875 C 39.972656 -109.425781 42.863281 -107.316406 45.21875 -104.859375 L 71.359375 -79.203125 C 71.566406 -78.773438 71.910156 -78.722656 72.390625 -79.046875 C 72.867188 -79.367188 73.003906 -79.742188 72.796875 -80.171875 L 63.328125 -93.96875 C 64.191406 -97.59375 65.796875 -100.898438 68.140625 -103.890625 C 70.492188 -106.890625 73.40625 -109.296875 76.875 -111.109375 C 80.351562 -112.929688 84.070312 -113.84375 88.03125 -113.84375 C 93.695312 -113.84375 98.425781 -112.664062 102.21875 -110.3125 C 106.007812 -107.957031 108.894531 -104.859375 110.875 -101.015625 C 112.851562 -97.171875 113.84375 -92.894531 113.84375 -88.1875 Z M 113.84375 -23.578125 "/></g></g></g><g fill="#ffffff" fill-opacity="1"><g transform="translate(464.647995, 153.722766)"><g><path d="M 101.8125 -88.671875 C 101.8125 -84.503906 100.847656 -80.734375 98.921875 -77.359375 C 97.003906 -73.992188 94.175781 -71.347656 90.4375 -69.421875 C 87.757812 -70.921875 84.894531 -72.097656 81.84375 -72.953125 C 78.800781 -73.804688 75.675781 -74.34375 72.46875 -74.5625 C 71.832031 -74.5625 71.429688 -74.265625 71.265625 -73.671875 C 71.109375 -73.085938 71.351562 -72.6875 72 -72.46875 C 79.15625 -70.863281 85.003906 -67.976562 89.546875 -63.8125 C 94.085938 -59.644531 97.320312 -54.832031 99.25 -49.375 C 101.175781 -43.925781 101.84375 -38.316406 101.25 -32.546875 C 100.664062 -26.773438 98.742188 -21.429688 95.484375 -16.515625 C 92.222656 -11.597656 87.648438 -7.613281 81.765625 -4.5625 C 75.890625 -1.519531 68.734375 0 60.296875 0 L 25.171875 0 C 20.578125 0 16.351562 -1.332031 12.5 -4 C 8.65625 -6.675781 5.554688 -9.988281 3.203125 -13.9375 C 0.847656 -17.894531 -0.328125 -21.75 -0.328125 -25.5 C -0.328125 -29.875 0.472656 -33.691406 2.078125 -36.953125 C 3.679688 -40.210938 6.25 -43.128906 9.78125 -45.703125 C 12.882812 -43.671875 16.410156 -42.117188 20.359375 -41.046875 C 24.316406 -39.972656 28.164062 -39.4375 31.90625 -39.4375 C 32.550781 -39.4375 32.925781 -39.726562 33.03125 -40.3125 C 33.132812 -40.90625 32.867188 -41.3125 32.234375 -41.53125 C 29.984375 -41.738281 27.734375 -42.21875 25.484375 -42.96875 C 23.242188 -43.71875 21.054688 -44.628906 18.921875 -45.703125 C 13.679688 -48.472656 9.507812 -52.050781 6.40625 -56.4375 C 3.3125 -60.820312 1.304688 -65.578125 0.390625 -70.703125 C -0.515625 -75.835938 -0.351562 -80.941406 0.875 -86.015625 C 2.101562 -91.097656 4.398438 -95.722656 7.765625 -99.890625 C 11.140625 -104.054688 15.601562 -107.421875 21.15625 -109.984375 C 26.71875 -112.554688 33.347656 -113.84375 41.046875 -113.84375 L 75.84375 -113.84375 C 80.65625 -113.84375 85.007812 -112.71875 88.90625 -110.46875 C 92.8125 -108.226562 95.9375 -105.207031 98.28125 -101.40625 C 100.632812 -97.613281 101.8125 -93.367188 101.8125 -88.671875 Z M 101.8125 -88.671875 "/></g></g></g></g></g></g></g></g></g></svg>