<svg xmlns="http://www.w3.org/2000/svg" xmlns:xlink="http://www.w3.org/1999/xlink" width="768" zoomAndPan="magnify" viewBox="0 0 576 576" height="768" preserveAspectRatio="xMidYMid meet" version="1.0"><rect x="-57.6" width="691.2" fill="#ffffff" y="-57.6" height="691.2" fill-opacity="1"/><rect x="-57.6" width="691.2" fill="#ffffff" y="-57.6" height="691.2" fill-opacity="1"/><rect x="-57.6" width="691.2" fill="#ec644e" y="-57.6" height="691.2" fill-opacity="1"/><path fill="#262626" d="M 56.140625 323.929688 C 53.046875 323.929688 50.222656 323.1875 47.667969 321.714844 C 45.117188 320.230469 43.101562 318.25 41.621094 315.769531 C 40.140625 313.277344 39.40625 310.523438 39.40625 307.496094 L 39.40625 267.6875 C 39.40625 264.664062 40.140625 261.925781 41.621094 259.476562 C 43.101562 257.023438 45.117188 255.058594 47.667969 253.582031 C 50.222656 252.097656 53.046875 251.355469 56.140625 251.355469 L 75.996094 251.355469 C 80.023438 251.355469 83.769531 252.097656 87.234375 253.582031 C 90.695312 255.058594 93.714844 257.105469 96.300781 259.730469 C 98.890625 262.34375 100.921875 265.398438 102.398438 268.894531 C 103.882812 272.390625 104.625 276.121094 104.625 280.085938 C 104.625 284.117188 103.847656 287.878906 102.296875 291.375 C 100.753906 294.871094 98.640625 297.949219 95.949219 300.605469 C 93.265625 303.253906 90.144531 305.304688 86.582031 306.753906 C 83.015625 308.195312 79.21875 308.847656 75.191406 308.714844 L 73.378906 298.832031 C 73.246094 298.429688 73.042969 298.261719 72.777344 298.328125 C 72.503906 298.398438 72.375 298.628906 72.375 299.03125 L 72.375 307.496094 C 72.375 310.457031 71.632812 313.179688 70.148438 315.667969 C 68.671875 318.152344 66.707031 320.148438 64.25 321.664062 C 61.800781 323.171875 59.097656 323.929688 56.140625 323.929688 Z M 73.882812 276.351562 C 73.613281 276.351562 73.359375 276.351562 73.128906 276.351562 C 72.890625 276.351562 72.640625 276.417969 72.375 276.550781 L 72.375 283.503906 C 72.90625 283.839844 73.410156 284.007812 73.882812 284.007812 C 74.953125 284.007812 75.875 283.625 76.648438 282.851562 C 77.417969 282.082031 77.804688 281.160156 77.804688 280.085938 C 77.804688 279.011719 77.417969 278.125 76.648438 277.417969 C 75.875 276.710938 74.953125 276.351562 73.882812 276.351562 Z M 73.882812 276.351562 " fill-opacity="1" fill-rule="nonzero"/><path fill="#262626" d="M 138.691406 300.945312 C 138.421875 300.609375 138.117188 300.558594 137.785156 300.792969 C 137.449219 301.027344 137.414062 301.347656 137.683594 301.75 L 143.832031 311.128906 C 142.960938 314.492188 141.195312 317.296875 138.539062 319.550781 C 135.890625 321.800781 132.484375 322.921875 128.316406 322.921875 C 125.628906 322.921875 123.070312 322.21875 120.648438 320.808594 C 118.234375 319.394531 116.25 317.476562 114.703125 315.0625 C 113.15625 312.644531 112.386719 309.984375 112.386719 307.09375 L 112.386719 267.386719 C 112.386719 264.089844 113.171875 261.257812 114.75 258.875 C 116.335938 256.484375 118.335938 254.636719 120.75 253.328125 C 123.167969 252.015625 125.726562 251.355469 128.417969 251.355469 C 130.699219 251.355469 132.894531 251.828125 135.007812 252.761719 C 137.125 253.703125 138.960938 255.082031 140.515625 256.898438 L 179.113281 296.003906 C 182.207031 299.230469 183.753906 302.960938 183.753906 307.191406 C 183.753906 311.359375 182.207031 315.058594 179.113281 318.28125 C 177.570312 319.835938 175.808594 320.996094 173.820312 321.765625 C 171.839844 322.539062 169.808594 322.921875 167.722656 322.921875 C 165.710938 322.921875 163.710938 322.539062 161.726562 321.765625 C 159.746094 320.996094 157.980469 319.835938 156.433594 318.28125 Z M 138.691406 300.945312 " fill-opacity="1" fill-rule="nonzero"/><path fill="#262626" d="M 226.027344 251.355469 C 229.054688 251.355469 231.789062 252.097656 234.238281 253.582031 C 236.695312 255.058594 238.644531 257.023438 240.085938 259.476562 C 241.535156 261.925781 242.261719 264.628906 242.261719 267.585938 C 242.261719 270.472656 241.550781 273.105469 240.136719 275.496094 C 238.726562 277.882812 236.828125 279.816406 234.441406 281.292969 C 232.058594 282.769531 229.355469 283.503906 226.332031 283.503906 L 226.429688 307.695312 C 226.429688 310.65625 225.691406 313.378906 224.207031 315.867188 C 222.730469 318.351562 220.765625 320.332031 218.308594 321.816406 C 215.859375 323.289062 213.15625 324.027344 210.199219 324.027344 C 207.3125 324.027344 204.660156 323.289062 202.242188 321.816406 C 199.816406 320.332031 197.882812 318.351562 196.445312 315.867188 C 195 313.378906 194.28125 310.65625 194.28125 307.695312 L 194.28125 283.503906 C 191.320312 283.503906 188.628906 282.769531 186.210938 281.292969 C 183.796875 279.816406 181.878906 277.882812 180.464844 275.496094 C 179.054688 273.105469 178.351562 270.472656 178.351562 267.585938 C 178.351562 264.628906 179.054688 261.925781 180.464844 259.476562 C 181.878906 257.023438 183.796875 255.058594 186.210938 253.582031 C 188.628906 252.097656 191.320312 251.355469 194.28125 251.355469 Z M 226.027344 251.355469 " fill-opacity="1" fill-rule="nonzero"/><path fill="#262626" d="M 297.195312 251.355469 C 300.21875 251.355469 302.957031 252.097656 305.40625 253.582031 C 307.859375 255.058594 309.808594 257.023438 311.253906 259.476562 C 312.703125 261.925781 313.425781 264.628906 313.425781 267.585938 C 313.425781 270.472656 312.71875 273.105469 311.304688 275.496094 C 309.894531 277.882812 307.996094 279.816406 305.605469 281.292969 C 303.222656 282.769531 300.519531 283.503906 297.496094 283.503906 L 297.597656 307.695312 C 297.597656 310.65625 296.855469 313.378906 295.371094 315.867188 C 293.894531 318.351562 291.929688 320.332031 289.476562 321.816406 C 287.027344 323.289062 284.324219 324.027344 281.367188 324.027344 C 278.480469 324.027344 275.828125 323.289062 273.40625 321.816406 C 270.984375 320.332031 269.050781 318.351562 267.609375 315.867188 C 266.167969 313.378906 265.449219 310.65625 265.449219 307.695312 L 265.449219 283.503906 C 262.488281 283.503906 259.796875 282.769531 257.375 281.292969 C 254.960938 279.816406 253.042969 277.882812 251.628906 275.496094 C 250.222656 273.105469 249.519531 270.472656 249.519531 267.585938 C 249.519531 264.628906 250.222656 261.925781 251.628906 259.476562 C 253.042969 257.023438 254.960938 255.058594 257.375 253.582031 C 259.796875 252.097656 262.488281 251.355469 265.449219 251.355469 Z M 297.195312 251.355469 " fill-opacity="1" fill-rule="nonzero"/><path fill="#262626" d="M 320.984375 267.585938 C 320.984375 264.5625 321.671875 261.824219 323.046875 259.375 C 324.429688 256.921875 326.34375 254.972656 328.792969 253.53125 C 331.25 252.082031 334.054688 251.355469 337.21875 251.355469 L 363.519531 251.355469 C 366.679688 251.355469 369.433594 252.132812 371.78125 253.679688 C 374.136719 255.222656 375.96875 257.222656 377.277344 259.679688 C 378.589844 262.128906 379.25 264.730469 379.25 267.488281 C 379.25 270.304688 378.574219 272.890625 377.226562 275.246094 C 375.882812 277.601562 373.984375 279.480469 371.53125 280.890625 C 369.082031 282.296875 366.144531 283.070312 362.714844 283.203125 C 362.378906 283.203125 362.214844 283.386719 362.214844 283.757812 C 362.214844 284.128906 362.378906 284.382812 362.714844 284.523438 C 365.472656 284.859375 368.160156 284.675781 370.777344 283.96875 C 373.398438 283.257812 375.71875 281.863281 377.742188 279.78125 C 378.746094 281.996094 379.25 284.347656 379.25 286.835938 C 379.25 291.539062 377.820312 295.269531 374.964844 298.027344 C 372.101562 300.777344 368.355469 302.425781 363.722656 302.96875 C 363.386719 302.96875 363.21875 303.167969 363.21875 303.570312 C 363.21875 303.972656 363.386719 304.175781 363.722656 304.175781 C 366.34375 304.445312 368.894531 304.246094 371.378906 303.570312 C 373.871094 302.902344 376.058594 301.457031 377.941406 299.234375 C 378.476562 300.109375 378.863281 301.082031 379.101562 302.164062 C 379.332031 303.238281 379.453125 304.847656 379.453125 306.992188 C 379.453125 308.542969 379.148438 310.246094 378.546875 312.097656 C 377.941406 313.941406 376.980469 315.6875 375.667969 317.328125 C 374.359375 318.972656 372.710938 320.316406 370.726562 321.363281 C 368.746094 322.402344 366.34375 322.921875 363.519531 322.921875 L 337.015625 322.921875 C 334.054688 322.921875 331.351562 322.203125 328.894531 320.757812 C 326.445312 319.308594 324.511719 317.378906 323.097656 314.964844 C 321.691406 312.542969 320.984375 309.882812 320.984375 306.992188 Z M 320.984375 267.585938 " fill-opacity="1" fill-rule="nonzero"/><path fill="#262626" d="M 459.386719 308.109375 C 459.386719 311.53125 458.644531 314.417969 457.160156 316.773438 C 455.683594 319.132812 453.734375 320.910156 451.3125 322.117188 C 448.898438 323.324219 446.277344 323.929688 443.453125 323.929688 C 441.375 323.929688 439.34375 323.542969 437.355469 322.769531 C 435.375 322 433.613281 320.839844 432.0625 319.289062 L 414.738281 301.847656 C 414.601562 301.515625 414.378906 301.519531 414.070312 301.863281 C 413.769531 302.199219 413.683594 302.535156 413.820312 302.867188 L 419.566406 311.730469 C 418.828125 315.226562 416.980469 318.136719 414.019531 320.457031 C 411.070312 322.769531 407.710938 323.929688 403.949219 323.929688 C 400.988281 323.929688 398.28125 323.203125 395.828125 321.765625 C 393.378906 320.316406 391.429688 318.382812 389.980469 315.96875 C 388.539062 313.546875 387.816406 310.824219 387.816406 307.796875 L 387.816406 267.488281 C 387.816406 264.527344 388.539062 261.839844 389.980469 259.425781 C 391.429688 257.007812 393.378906 255.058594 395.828125 253.582031 C 398.28125 252.097656 400.988281 251.355469 403.949219 251.355469 C 406.363281 251.355469 408.640625 251.910156 410.789062 253.015625 C 412.941406 254.121094 414.761719 255.449219 416.246094 257 L 432.679688 273.132812 C 432.8125 273.402344 433.03125 273.433594 433.332031 273.234375 C 433.636719 273.03125 433.714844 272.796875 433.585938 272.527344 L 427.636719 263.851562 C 428.171875 261.566406 429.179688 259.484375 430.65625 257.605469 C 432.140625 255.726562 433.96875 254.21875 436.148438 253.078125 C 438.335938 251.929688 440.667969 251.355469 443.152344 251.355469 C 446.714844 251.355469 449.683594 252.097656 452.066406 253.582031 C 454.457031 255.058594 456.269531 257.007812 457.511719 259.425781 C 458.757812 261.839844 459.386719 264.527344 459.386719 267.488281 Z M 459.386719 308.109375 " fill-opacity="1" fill-rule="nonzero"/><path fill="#262626" d="M 532.46875 267.183594 C 532.46875 269.800781 531.859375 272.171875 530.648438 274.289062 C 529.441406 276.402344 527.660156 278.066406 525.316406 279.28125 C 523.632812 278.335938 521.828125 277.59375 519.910156 277.054688 C 518 276.519531 516.039062 276.183594 514.027344 276.050781 C 513.625 276.050781 513.371094 276.234375 513.269531 276.601562 C 513.171875 276.972656 513.320312 277.222656 513.722656 277.355469 C 518.226562 278.371094 521.898438 280.191406 524.75 282.8125 C 527.609375 285.429688 529.640625 288.453125 530.847656 291.878906 C 532.0625 295.308594 532.484375 298.839844 532.117188 302.464844 C 531.746094 306.085938 530.539062 309.445312 528.484375 312.535156 C 526.4375 315.628906 523.570312 318.136719 519.871094 320.054688 C 516.175781 321.964844 511.667969 322.921875 506.355469 322.921875 L 484.289062 322.921875 C 481.398438 322.921875 478.738281 322.085938 476.320312 320.40625 C 473.90625 318.722656 471.957031 316.640625 470.472656 314.160156 C 468.996094 311.667969 468.257812 309.25 468.257812 306.890625 C 468.257812 304.144531 468.761719 301.746094 469.769531 299.699219 C 470.773438 297.648438 472.386719 295.8125 474.609375 294.191406 C 476.558594 295.46875 478.777344 296.441406 481.257812 297.121094 C 483.75 297.792969 486.167969 298.128906 488.515625 298.128906 C 488.917969 298.128906 489.148438 297.945312 489.21875 297.574219 C 489.292969 297.207031 489.125 296.957031 488.714844 296.820312 C 487.308594 296.6875 485.894531 296.386719 484.476562 295.914062 C 483.070312 295.4375 481.695312 294.863281 480.355469 294.191406 C 477.058594 292.449219 474.433594 290.199219 472.484375 287.441406 C 470.539062 284.683594 469.28125 281.695312 468.710938 278.476562 C 468.144531 275.25 468.242188 272.039062 469.011719 268.84375 C 469.785156 265.652344 471.226562 262.746094 473.339844 260.132812 C 475.457031 257.507812 478.265625 255.390625 481.761719 253.78125 C 485.257812 252.167969 489.421875 251.355469 494.261719 251.355469 L 516.136719 251.355469 C 519.160156 251.355469 521.898438 252.066406 524.347656 253.480469 C 526.804688 254.886719 528.769531 256.785156 530.246094 259.175781 C 531.730469 261.558594 532.46875 264.226562 532.46875 267.183594 Z M 532.46875 267.183594 " fill-opacity="1" fill-rule="nonzero"/></svg>