<?xml version="1.0" encoding="UTF-8"?><svg xmlns="http://www.w3.org/2000/svg" xmlns:xlink="http://www.w3.org/1999/xlink" width="1024" zoomAndPan="magnify" viewBox="0 0 768 767.999994" height="1024" preserveAspectRatio="xMidYMid meet" version="1.2" baseProfile="tiny-ps"><title>pattens</title><defs><g></g><clipPath id="6f9b30514f"><path d="M 20.992188 20.992188 L 747.007812 20.992188 L 747.007812 747.007812 L 20.992188 747.007812 Z M 20.992188 20.992188 "></path></clipPath><clipPath id="8201f3b549"><path d="M 384 20.992188 C 183.515625 20.992188 20.992188 183.515625 20.992188 384 C 20.992188 584.484375 183.515625 747.007812 384 747.007812 C 584.484375 747.007812 747.007812 584.484375 747.007812 384 C 747.007812 183.515625 584.484375 20.992188 384 20.992188 Z M 384 20.992188 "></path></clipPath><clipPath id="690f6b5330"><path d="M 0.992188 0.992188 L 727.007812 0.992188 L 727.007812 727.007812 L 0.992188 727.007812 Z M 0.992188 0.992188 "></path></clipPath><clipPath id="b82bb62cef"><path d="M 364 0.992188 C 163.515625 0.992188 0.992188 163.515625 0.992188 364 C 0.992188 564.484375 163.515625 727.007812 364 727.007812 C 564.484375 727.007812 727.007812 564.484375 727.007812 364 C 727.007812 163.515625 564.484375 0.992188 364 0.992188 Z M 364 0.992188 "></path></clipPath><clipPath id="b429f96ff3"><rect x="0" width="728" y="0" height="728"></rect></clipPath><clipPath id="e3a812995c"><path d="M 0.878906 0.441406 L 192 0.441406 L 192 152.121094 L 0.878906 152.121094 Z M 0.878906 0.441406 "></path></clipPath><clipPath id="b94e2c5d8f"><rect x="0" width="192" y="0" height="153"></rect></clipPath><clipPath id="86b12d151f"><path d="M 171 0.441406 L 626.320312 0.441406 L 626.320312 152.121094 L 171 152.121094 Z M 171 0.441406 "></path></clipPath><clipPath id="6477176eba"><rect x="0" width="456" y="0" height="153"></rect></clipPath><clipPath id="897bc3b829"><rect x="0" width="627" y="0" height="153"></rect></clipPath></defs><g><g><g transform="matrix(1, 0, 0, 1, 20, 20)"><g><g><g><path fill="#ec644e" d="M 0.992188 0.992188 L 727.007812 0.992188 L 727.007812 727.007812 L 0.992188 727.007812 Z M 0.992188 0.992188 " fill-opacity="1" fill-rule="nonzero"></path></g></g></g></g></g></g><g transform="matrix(1, 0, 0, 1, 74, 307)"><g><g><g transform="matrix(1, 0, 0, 1, 0, -0.000000000000056843)"><g><g fill="#262626" fill-opacity="1"><g transform="translate(1.38573, 120.176418)"><g><path d="M 20.796875 1.25 C 16.953125 1.25 13.441406 0.332031 10.265625 -1.5 C 7.097656 -3.34375 4.59375 -5.804688 2.75 -8.890625 C 0.914062 -11.984375 0 -15.410156 0 -19.171875 L 0 -68.640625 C 0 -72.398438 0.914062 -75.800781 2.75 -78.84375 C 4.59375 -81.894531 7.097656 -84.335938 10.265625 -86.171875 C 13.441406 -88.015625 16.953125 -88.9375 20.796875 -88.9375 L 45.46875 -88.9375 C 50.476562 -88.9375 55.132812 -88.015625 59.4375 -86.171875 C 63.738281 -84.335938 67.492188 -81.789062 70.703125 -78.53125 C 73.921875 -75.28125 76.445312 -71.484375 78.28125 -67.140625 C 80.125 -62.796875 81.046875 -58.160156 81.046875 -53.234375 C 81.046875 -48.222656 80.082031 -43.546875 78.15625 -39.203125 C 76.238281 -34.859375 73.609375 -31.035156 70.265625 -27.734375 C 66.929688 -24.441406 63.050781 -21.894531 58.625 -20.09375 C 54.195312 -18.300781 49.476562 -17.488281 44.46875 -17.65625 L 42.21875 -29.9375 C 42.050781 -30.4375 41.800781 -30.644531 41.46875 -30.5625 C 41.132812 -30.476562 40.96875 -30.1875 40.96875 -29.6875 L 40.96875 -19.171875 C 40.96875 -15.492188 40.046875 -12.109375 38.203125 -9.015625 C 36.367188 -5.929688 33.925781 -3.445312 30.875 -1.5625 C 27.832031 0.3125 24.472656 1.25 20.796875 1.25 Z M 42.84375 -57.875 C 42.507812 -57.875 42.195312 -57.875 41.90625 -57.875 C 41.613281 -57.875 41.300781 -57.789062 40.96875 -57.625 L 40.96875 -48.984375 C 41.632812 -48.566406 42.257812 -48.359375 42.84375 -48.359375 C 44.175781 -48.359375 45.320312 -48.835938 46.28125 -49.796875 C 47.238281 -50.753906 47.71875 -51.898438 47.71875 -53.234375 C 47.71875 -54.566406 47.238281 -55.671875 46.28125 -56.546875 C 45.320312 -57.429688 44.175781 -57.875 42.84375 -57.875 Z M 42.84375 -57.875 "></path></g></g></g><g fill="#262626" fill-opacity="1"><g transform="translate(92.205787, 120.176418)"><g><path d="M 32.5625 -27.3125 C 32.226562 -27.726562 31.851562 -27.789062 31.4375 -27.5 C 31.019531 -27.207031 30.976562 -26.8125 31.3125 -26.3125 L 38.953125 -14.65625 C 37.867188 -10.476562 35.675781 -6.988281 32.375 -4.1875 C 29.082031 -1.394531 24.847656 0 19.671875 0 C 16.328125 0 13.148438 -0.875 10.140625 -2.625 C 7.140625 -4.382812 4.675781 -6.765625 2.75 -9.765625 C 0.832031 -12.773438 -0.125 -16.078125 -0.125 -19.671875 L -0.125 -69.015625 C -0.125 -73.109375 0.851562 -76.632812 2.8125 -79.59375 C 4.78125 -82.5625 7.265625 -84.859375 10.265625 -86.484375 C 13.273438 -88.117188 16.453125 -88.9375 19.796875 -88.9375 C 22.628906 -88.9375 25.359375 -88.351562 27.984375 -87.1875 C 30.617188 -86.019531 32.898438 -84.304688 34.828125 -82.046875 L 82.796875 -33.453125 C 86.640625 -29.441406 88.5625 -24.804688 88.5625 -19.546875 C 88.5625 -14.367188 86.640625 -9.773438 82.796875 -5.765625 C 80.878906 -3.835938 78.6875 -2.394531 76.21875 -1.4375 C 73.757812 -0.476562 71.234375 0 68.640625 0 C 66.140625 0 63.65625 -0.476562 61.1875 -1.4375 C 58.726562 -2.394531 56.535156 -3.835938 54.609375 -5.765625 Z M 32.5625 -27.3125 "></path></g></g></g></g></g></g><g><g transform="matrix(1, 0, 0, 1, 171, -0.000000000000056843)"><g><g fill="#262626" fill-opacity="1"><g transform="translate(3.429894, 120.176418)"><g><path d="M 58.875 -88.9375 C 62.632812 -88.9375 66.035156 -88.015625 69.078125 -86.171875 C 72.128906 -84.335938 74.550781 -81.894531 76.34375 -78.84375 C 78.144531 -75.800781 79.046875 -72.441406 79.046875 -68.765625 C 79.046875 -65.179688 78.164062 -61.90625 76.40625 -58.9375 C 74.65625 -55.96875 72.296875 -53.566406 69.328125 -51.734375 C 66.367188 -49.898438 63.007812 -48.984375 59.25 -48.984375 L 59.375 -18.921875 C 59.375 -15.242188 58.453125 -11.859375 56.609375 -8.765625 C 54.773438 -5.679688 52.332031 -3.21875 49.28125 -1.375 C 46.238281 0.457031 42.878906 1.375 39.203125 1.375 C 35.617188 1.375 32.320312 0.457031 29.3125 -1.375 C 26.300781 -3.21875 23.898438 -5.679688 22.109375 -8.765625 C 20.316406 -11.859375 19.421875 -15.242188 19.421875 -18.921875 L 19.421875 -48.984375 C 15.742188 -48.984375 12.398438 -49.898438 9.390625 -51.734375 C 6.390625 -53.566406 4.007812 -55.96875 2.25 -58.9375 C 0.5 -61.90625 -0.375 -65.179688 -0.375 -68.765625 C -0.375 -72.441406 0.5 -75.800781 2.25 -78.84375 C 4.007812 -81.894531 6.390625 -84.335938 9.390625 -86.171875 C 12.398438 -88.015625 15.742188 -88.9375 19.421875 -88.9375 Z M 58.875 -88.9375 "></path></g></g></g><g fill="#262626" fill-opacity="1"><g transform="translate(91.869854, 120.176418)"><g><path d="M 58.875 -88.9375 C 62.632812 -88.9375 66.035156 -88.015625 69.078125 -86.171875 C 72.128906 -84.335938 74.550781 -81.894531 76.34375 -78.84375 C 78.144531 -75.800781 79.046875 -72.441406 79.046875 -68.765625 C 79.046875 -65.179688 78.164062 -61.90625 76.40625 -58.9375 C 74.65625 -55.96875 72.296875 -53.566406 69.328125 -51.734375 C 66.367188 -49.898438 63.007812 -48.984375 59.25 -48.984375 L 59.375 -18.921875 C 59.375 -15.242188 58.453125 -11.859375 56.609375 -8.765625 C 54.773438 -5.679688 52.332031 -3.21875 49.28125 -1.375 C 46.238281 0.457031 42.878906 1.375 39.203125 1.375 C 35.617188 1.375 32.320312 0.457031 29.3125 -1.375 C 26.300781 -3.21875 23.898438 -5.679688 22.109375 -8.765625 C 20.316406 -11.859375 19.421875 -15.242188 19.421875 -18.921875 L 19.421875 -48.984375 C 15.742188 -48.984375 12.398438 -49.898438 9.390625 -51.734375 C 6.390625 -53.566406 4.007812 -55.96875 2.25 -58.9375 C 0.5 -61.90625 -0.375 -65.179688 -0.375 -68.765625 C -0.375 -72.441406 0.5 -75.800781 2.25 -78.84375 C 4.007812 -81.894531 6.390625 -84.335938 9.390625 -86.171875 C 12.398438 -88.015625 15.742188 -88.9375 19.421875 -88.9375 Z M 58.875 -88.9375 "></path></g></g></g><g fill="#262626" fill-opacity="1"><g transform="translate(180.309814, 120.176418)"><g><path d="M 0 -68.765625 C 0 -72.523438 0.851562 -75.925781 2.5625 -78.96875 C 4.28125 -82.019531 6.660156 -84.441406 9.703125 -86.234375 C 12.753906 -88.035156 16.242188 -88.9375 20.171875 -88.9375 L 52.859375 -88.9375 C 56.785156 -88.9375 60.207031 -87.972656 63.125 -86.046875 C 66.050781 -84.128906 68.328125 -81.644531 69.953125 -78.59375 C 71.585938 -75.550781 72.40625 -72.316406 72.40625 -68.890625 C 72.40625 -65.390625 71.566406 -62.175781 69.890625 -59.25 C 68.222656 -56.320312 65.863281 -53.984375 62.8125 -52.234375 C 59.769531 -50.484375 56.117188 -49.523438 51.859375 -49.359375 C 51.441406 -49.359375 51.234375 -49.128906 51.234375 -48.671875 C 51.234375 -48.210938 51.441406 -47.894531 51.859375 -47.71875 C 55.285156 -47.300781 58.625 -47.53125 61.875 -48.40625 C 65.132812 -49.289062 68.019531 -51.023438 70.53125 -53.609375 C 71.78125 -50.859375 72.40625 -47.9375 72.40625 -44.84375 C 72.40625 -39 70.628906 -34.363281 67.078125 -30.9375 C 63.523438 -27.519531 58.867188 -25.472656 53.109375 -24.796875 C 52.691406 -24.796875 52.484375 -24.546875 52.484375 -24.046875 C 52.484375 -23.546875 52.691406 -23.296875 53.109375 -23.296875 C 56.367188 -22.960938 59.539062 -23.210938 62.625 -24.046875 C 65.71875 -24.878906 68.4375 -26.675781 70.78125 -29.4375 C 71.445312 -28.351562 71.925781 -27.140625 72.21875 -25.796875 C 72.507812 -24.460938 72.65625 -22.460938 72.65625 -19.796875 C 72.65625 -17.867188 72.28125 -15.753906 71.53125 -13.453125 C 70.78125 -11.160156 69.585938 -8.992188 67.953125 -6.953125 C 66.328125 -4.910156 64.28125 -3.238281 61.8125 -1.9375 C 59.351562 -0.644531 56.367188 0 52.859375 0 L 19.921875 0 C 16.242188 0 12.878906 -0.894531 9.828125 -2.6875 C 6.785156 -4.488281 4.382812 -6.890625 2.625 -9.890625 C 0.875 -12.898438 0 -16.203125 0 -19.796875 Z M 0 -68.765625 "></path></g></g></g><g fill="#262626" fill-opacity="1"><g transform="translate(263.363218, 120.176418)"><g><path d="M 88.9375 -18.40625 C 88.9375 -14.15625 88.015625 -10.566406 86.171875 -7.640625 C 84.335938 -4.710938 81.914062 -2.5 78.90625 -1 C 75.90625 0.5 72.648438 1.25 69.140625 1.25 C 66.554688 1.25 64.03125 0.769531 61.5625 -0.1875 C 59.101562 -1.144531 56.910156 -2.585938 54.984375 -4.515625 L 33.453125 -26.1875 C 33.285156 -26.601562 33.007812 -26.597656 32.625 -26.171875 C 32.25 -25.753906 32.144531 -25.335938 32.3125 -24.921875 L 39.453125 -13.90625 C 38.535156 -9.5625 36.238281 -5.945312 32.5625 -3.0625 C 28.894531 -0.1875 24.722656 1.25 20.046875 1.25 C 16.367188 1.25 13.003906 0.351562 9.953125 -1.4375 C 6.910156 -3.238281 4.488281 -5.640625 2.6875 -8.640625 C 0.894531 -11.648438 0 -15.035156 0 -18.796875 L 0 -68.890625 C 0 -72.566406 0.894531 -75.90625 2.6875 -78.90625 C 4.488281 -81.914062 6.910156 -84.335938 9.953125 -86.171875 C 13.003906 -88.015625 16.367188 -88.9375 20.046875 -88.9375 C 23.046875 -88.9375 25.878906 -88.25 28.546875 -86.875 C 31.222656 -85.5 33.484375 -83.847656 35.328125 -81.921875 L 55.75 -61.875 C 55.914062 -61.539062 56.1875 -61.5 56.5625 -61.75 C 56.9375 -62 57.039062 -62.289062 56.875 -62.625 L 49.484375 -73.40625 C 50.148438 -76.25 51.398438 -78.835938 53.234375 -81.171875 C 55.078125 -83.503906 57.351562 -85.378906 60.0625 -86.796875 C 62.78125 -88.222656 65.679688 -88.9375 68.765625 -88.9375 C 73.191406 -88.9375 76.882812 -88.015625 79.84375 -86.171875 C 82.8125 -84.335938 85.066406 -81.914062 86.609375 -78.90625 C 88.160156 -75.90625 88.9375 -72.566406 88.9375 -68.890625 Z M 88.9375 -18.40625 "></path></g></g></g><g fill="#262626" fill-opacity="1"><g transform="translate(363.57844, 120.176418)"><g><path d="M 79.546875 -69.265625 C 79.546875 -66.015625 78.789062 -63.070312 77.28125 -60.4375 C 75.78125 -57.8125 73.570312 -55.742188 70.65625 -54.234375 C 68.5625 -55.410156 66.320312 -56.332031 63.9375 -57 C 61.5625 -57.664062 59.125 -58.082031 56.625 -58.25 C 56.125 -58.25 55.8125 -58.019531 55.6875 -57.5625 C 55.5625 -57.101562 55.75 -56.789062 56.25 -56.625 C 61.84375 -55.363281 66.410156 -53.101562 69.953125 -49.84375 C 73.503906 -46.59375 76.03125 -42.835938 77.53125 -38.578125 C 79.039062 -34.316406 79.566406 -29.929688 79.109375 -25.421875 C 78.648438 -20.921875 77.144531 -16.75 74.59375 -12.90625 C 72.050781 -9.0625 68.484375 -5.945312 63.890625 -3.5625 C 59.296875 -1.1875 53.695312 0 47.09375 0 L 19.671875 0 C 16.078125 0 12.773438 -1.039062 9.765625 -3.125 C 6.765625 -5.21875 4.34375 -7.804688 2.5 -10.890625 C 0.664062 -13.984375 -0.25 -16.992188 -0.25 -19.921875 C -0.25 -23.335938 0.375 -26.316406 1.625 -28.859375 C 2.875 -31.410156 4.878906 -33.691406 7.640625 -35.703125 C 10.066406 -34.117188 12.820312 -32.90625 15.90625 -32.0625 C 19 -31.226562 22.003906 -30.8125 24.921875 -30.8125 C 25.421875 -30.8125 25.710938 -31.039062 25.796875 -31.5 C 25.890625 -31.957031 25.679688 -32.269531 25.171875 -32.4375 C 23.421875 -32.601562 21.664062 -32.976562 19.90625 -33.5625 C 18.15625 -34.15625 16.445312 -34.867188 14.78125 -35.703125 C 10.6875 -37.867188 7.425781 -40.664062 5 -44.09375 C 2.582031 -47.519531 1.019531 -51.234375 0.3125 -55.234375 C -0.394531 -59.242188 -0.269531 -63.234375 0.6875 -67.203125 C 1.644531 -71.171875 3.4375 -74.78125 6.0625 -78.03125 C 8.695312 -81.289062 12.1875 -83.921875 16.53125 -85.921875 C 20.875 -87.929688 26.050781 -88.9375 32.0625 -88.9375 L 59.25 -88.9375 C 63.007812 -88.9375 66.410156 -88.054688 69.453125 -86.296875 C 72.503906 -84.546875 74.945312 -82.1875 76.78125 -79.21875 C 78.625 -76.257812 79.546875 -72.941406 79.546875 -69.265625 Z M 79.546875 -69.265625 "></path></g></g></g></g></g></g></g></g></svg>